<?xml version="1.0" standalone="no"?>
<!DOCTYPE svg PUBLIC "-//W3C//DTD SVG 20010904//EN"
 "http://www.w3.org/TR/2001/REC-SVG-20010904/DTD/svg10.dtd">
<svg version="1.0" xmlns="http://www.w3.org/2000/svg"
 width="819.000000pt" height="819.000000pt" viewBox="0 0 819.000000 819.000000"
 preserveAspectRatio="xMidYMid meet">

<g transform="translate(0.000000,819.000000) scale(0.100000,-0.100000)"
fill="#000000" stroke="none">
<path d="M3690 7254 c-212 -79 -620 -230 -907 -336 -332 -122 -518 -195 -509
-200 8 -4 94 -37 193 -72 98 -35 263 -96 367 -135 130 -49 192 -68 197 -60 3
6 15 48 25 93 l18 81 8 -40 c15 -77 12 -305 -6 -400 -15 -77 -46 -197 -63
-241 -4 -10 5 -10 43 2 317 95 768 42 1002 -118 l43 -30 38 25 c245 162 647
219 970 136 41 -10 76 -18 77 -16 1 1 -11 47 -27 102 -45 151 -62 279 -55 415
4 63 10 129 15 145 7 27 10 19 30 -68 19 -83 26 -97 39 -92 10 4 168 63 352
131 184 69 348 130 364 136 28 11 28 12 -45 40 -41 16 -180 67 -309 114 -270
99 -1374 510 -1408 524 -13 6 -33 10 -45 9 -12 0 -195 -65 -407 -145z"/>
<path d="M5901 6388 c-4 -59 -84 -239 -153 -343 -175 -263 -347 -376 -690
-450 -155 -34 -332 -92 -428 -140 -254 -127 -423 -349 -476 -623 -41 -216 17
-389 178 -530 l33 -30 -26 82 c-89 273 -43 557 124 755 136 162 327 246 669
297 92 13 205 36 250 49 l83 25 56 -58 c111 -116 185 -263 216 -427 20 -106
13 -282 -17 -385 -89 -311 -357 -533 -702 -580 -199 -28 -430 29 -642 158 -67
42 -99 55 -62 27 14 -11 16 -15 5 -15 -12 0 -12 -2 1 -10 17 -11 16 -11 -22
-16 -16 -1 -28 2 -28 8 0 6 3 8 7 5 3 -4 12 -2 20 4 10 9 10 15 2 25 -6 8 -8
14 -4 14 4 0 2 7 -5 15 -7 9 -21 13 -31 10 -9 -3 -21 0 -25 6 -5 9 -2 10 12 5
10 -4 -1 11 -26 33 -25 21 -49 36 -54 33 -5 -3 -6 -1 -3 5 4 5 -7 23 -23 38
l-30 29 0 -322 c0 -177 4 -322 8 -322 8 0 82 95 82 105 0 4 -4 4 -9 1 -11 -7
-8 20 3 31 4 4 6 3 4 -2 -1 -6 2 -10 7 -10 6 0 9 6 9 12 -1 7 2 11 6 8 5 -3
18 10 29 29 23 36 27 51 12 41 -5 -3 -12 -1 -16 4 -3 6 3 8 13 6 13 -2 23 5
30 21 12 25 6 58 -9 48 -5 -3 -7 -10 -4 -15 4 -5 1 -9 -4 -9 -6 0 -11 10 -11
21 0 17 5 20 21 16 13 -3 19 -1 16 6 -3 7 -11 11 -18 9 -8 -2 -6 4 6 16 25 24
34 20 27 -13 -6 -35 4 -31 17 5 5 17 7 29 3 27 -11 -5 -52 42 -41 48 5 4 9 2
9 -3 0 -6 10 -8 23 -5 17 4 19 2 7 -6 -8 -5 -11 -13 -7 -17 4 -4 12 -3 19 4 8
8 8 15 -1 26 -14 16 4 35 20 19 24 -24 -76 -224 -186 -372 l-80 -108 -83 129
c-90 139 -158 271 -168 325 -4 19 -9 32 -13 30 -93 -50 -235 -111 -301 -129
-72 -19 -109 -23 -240 -23 -131 1 -168 4 -235 23 -298 85 -519 307 -586 587
-18 76 -20 110 -16 220 9 231 76 399 217 547 l65 68 102 -29 c57 -16 171 -39
254 -51 321 -46 512 -132 646 -292 171 -202 214 -469 124 -766 -19 -60 -19
-61 0 -52 26 14 115 123 138 168 51 102 68 210 51 332 -24 176 -104 349 -223
476 -145 156 -339 247 -692 328 -185 42 -291 82 -392 148 -182 118 -343 337
-423 572 l-27 79 -14 -54 c-15 -60 -18 -216 -6 -294 l7 -50 -36 40 c-20 22
-51 62 -70 90 l-34 50 0 -55 c0 -84 25 -184 67 -268 45 -92 150 -202 238 -252
33 -18 62 -35 64 -37 3 -2 -21 -29 -52 -61 -79 -80 -131 -156 -188 -276 -77
-161 -102 -270 -103 -446 -1 -109 4 -165 18 -225 22 -98 75 -229 121 -301 19
-30 35 -55 35 -57 0 -1 -60 -63 -133 -138 -160 -163 -392 -449 -376 -462 2 -2
63 2 134 10 174 19 649 22 775 4 440 -61 809 -213 1180 -487 19 -15 -13 21
-72 78 -59 58 -149 135 -200 171 -295 212 -734 337 -1185 337 -73 0 -133 2
-133 4 0 19 136 306 145 306 2 0 39 -25 82 -56 220 -160 508 -235 785 -206
167 18 265 47 494 148 6 3 54 -50 107 -118 52 -68 110 -140 129 -162 l33 -38
105 133 c58 73 114 143 125 156 l20 24 69 -31 c195 -89 381 -126 585 -117 267
12 481 91 672 248 l46 38 51 -107 c46 -98 92 -206 92 -217 0 -3 -62 -5 -138
-5 -337 0 -696 -77 -957 -204 -146 -72 -265 -158 -399 -289 -116 -114 -121
-125 -21 -47 105 82 229 158 377 230 225 109 431 170 698 206 158 22 554 22
785 1 88 -9 162 -14 164 -11 5 5 -97 145 -179 244 -39 47 -132 147 -207 222
l-136 137 31 48 c156 242 193 553 100 838 -51 158 -167 348 -269 440 -22 20
-39 37 -37 38 133 68 210 133 276 232 61 91 91 180 99 295 l5 85 -30 -45 c-41
-60 -101 -130 -113 -130 -4 0 -3 12 3 28 16 39 12 255 -5 322 -8 30 -15 47
-16 38z m-1696 -2087 c3 -5 2 -12 -3 -15 -5 -3 -9 1 -9 9 0 17 3 19 12 6z
m-25 -147 c0 -8 -19 -13 -24 -6 -3 5 1 9 9 9 8 0 15 -2 15 -3z m68 -69 c-3 -3
-9 2 -12 12 -6 14 -5 15 5 6 7 -7 10 -15 7 -18z"/>
<path d="M3330 5839 c-86 -11 -310 -62 -310 -71 0 -4 26 -12 58 -18 374 -76
581 -168 764 -339 96 -91 162 -176 219 -284 l36 -69 79 128 c46 75 106 158
146 200 176 185 453 311 808 368 l75 12 -60 18 c-365 109 -742 67 -987 -109
-26 -19 -51 -35 -54 -35 -3 0 -26 16 -52 35 -108 83 -280 142 -475 164 -108
12 -152 12 -247 0z"/>
<path d="M3162 5235 c-81 -18 -158 -53 -205 -95 -38 -33 -39 -33 -90 -21 -29
6 -76 22 -105 36 l-53 25 7 -23 c10 -33 44 -71 91 -103 24 -16 43 -32 43 -35
0 -4 -9 -26 -20 -51 -76 -173 -34 -396 101 -531 236 -236 651 -150 772 160 47
121 41 255 -18 381 -91 193 -313 302 -523 257z m250 -115 c80 -30 159 -104
200 -188 29 -59 33 -76 33 -152 0 -74 -4 -93 -31 -150 -38 -80 -105 -149 -182
-187 -80 -39 -210 -45 -295 -13 -81 30 -165 111 -203 192 -25 54 -29 75 -29
153 0 80 3 97 32 157 48 103 142 180 250 208 56 14 160 5 225 -20z"/>
<path d="M3275 5112 c-11 -1 -39 -8 -63 -14 l-43 -11 39 -17 c52 -24 72 -54
72 -111 0 -142 -193 -171 -237 -35 l-9 29 -19 -39 c-82 -172 52 -377 256 -392
122 -9 229 52 287 162 23 43 27 64 27 136 0 70 -4 93 -23 130 -30 58 -77 106
-126 132 -40 20 -124 36 -161 30z"/>
<path d="M4851 5234 c-249 -54 -414 -291 -373 -536 39 -231 226 -388 462 -388
170 0 318 85 402 230 75 128 81 319 14 448 -9 17 -16 33 -16 36 0 3 25 22 55
42 47 31 95 86 95 107 0 3 -28 -7 -62 -23 -34 -16 -81 -32 -105 -36 -38 -6
-47 -3 -78 24 -54 48 -115 80 -185 96 -78 19 -124 19 -209 0z m230 -117 c67
-32 151 -117 182 -184 18 -40 22 -66 22 -153 0 -99 -2 -109 -33 -172 -37 -77
-90 -128 -172 -167 -47 -22 -68 -26 -150 -26 -87 0 -101 3 -162 33 -77 38
-125 87 -169 174 -44 85 -52 204 -20 290 41 106 117 182 224 220 77 28 203 21
278 -15z"/>
<path d="M4790 5103 c-27 -10 -67 -38 -102 -73 -45 -45 -60 -69 -74 -115 -42
-146 29 -306 165 -368 71 -33 189 -31 257 5 59 31 118 93 145 152 25 55 25
157 0 211 -15 31 -20 35 -20 18 -1 -31 -56 -90 -91 -98 -42 -9 -95 11 -125 46
-54 65 -21 177 57 194 l32 7 -30 16 c-43 22 -159 25 -214 5z"/>
<path d="M1610 3468 c-206 -435 -105 -968 247 -1299 94 -88 182 -150 284 -198
121 -58 192 -74 314 -69 91 3 108 7 170 37 62 31 196 143 184 155 -2 2 -38 -5
-79 -16 -96 -25 -297 -35 -381 -19 -68 14 -199 59 -199 70 0 3 62 6 138 6 115
0 149 4 212 23 138 44 260 116 317 188 l31 39 -192 1 c-257 0 -402 26 -593
105 -78 33 -97 53 -35 38 72 -17 274 -22 352 -9 138 23 299 101 378 183 l33
34 -158 -5 c-134 -3 -174 -1 -262 18 -212 43 -367 124 -502 259 -71 72 -95
104 -133 182 -54 109 -79 214 -74 312 2 37 2 67 0 67 -2 0 -25 -46 -52 -102z"/>
<path d="M6534 3467 c-1 -156 -48 -283 -152 -413 -133 -164 -383 -292 -634
-324 -96 -12 -213 -12 -280 -1 -27 4 -48 4 -48 0 0 -18 129 -114 195 -145 117
-56 182 -69 345 -69 80 0 168 3 195 8 l50 7 -45 -25 c-147 -81 -402 -129 -653
-123 -81 1 -147 0 -147 -3 0 -4 25 -32 55 -62 39 -39 84 -69 148 -101 127 -62
188 -77 351 -83 l140 -6 -38 -19 c-136 -70 -407 -76 -584 -14 l-43 15 20 -27
c37 -53 113 -114 179 -145 58 -27 80 -32 169 -35 84 -4 115 0 175 18 266 81
518 306 653 585 58 119 88 218 106 353 28 208 -23 479 -124 654 l-32 57 -1
-102z"/>
<path d="M1737 3543 c-12 -12 -7 -118 8 -178 21 -84 76 -190 132 -257 215
-257 601 -356 1010 -258 43 10 79 17 80 16 5 -5 -87 -139 -123 -179 -50 -56
-155 -140 -229 -183 l-60 -35 145 6 c79 4 187 13 239 21 52 8 96 14 97 14 2 0
-25 -39 -59 -87 -70 -100 -150 -183 -222 -232 -50 -33 -50 -33 -15 -26 19 4
90 24 158 45 67 20 122 34 122 31 0 -3 -22 -40 -48 -81 -102 -159 -232 -268
-377 -316 -71 -23 -91 -26 -177 -22 l-97 5 17 -30 c55 -95 251 -265 424 -367
l85 -49 -10 -53 c-10 -55 5 -144 22 -133 5 2 8 -3 7 -13 0 -9 5 -16 12 -14 8
1 11 -2 7 -7 -8 -14 28 -31 65 -31 39 0 93 27 84 42 -5 7 -3 8 5 3 7 -4 22 2
37 16 13 12 24 21 24 18 1 -2 2 -31 3 -64 3 -63 24 -120 44 -120 6 0 15 -4 20
-9 5 -5 2 -6 -7 -2 -8 4 -4 -2 9 -13 13 -12 36 -21 53 -21 34 0 98 31 119 57
13 17 13 17 -13 0 -38 -24 -35 -13 4 14 17 13 28 18 24 11 -4 -7 -2 -12 3 -12
6 0 11 5 11 10 0 6 5 10 10 10 6 0 10 -11 10 -25 0 -81 94 -158 164 -135 49
16 82 44 112 96 32 54 9 57 259 -31 l182 -64 204 70 c182 63 205 68 215 54 9
-12 13 -13 17 -3 3 7 5 2 4 -12 -1 -16 3 -25 13 -25 8 0 15 -9 15 -19 0 -11 6
-21 14 -24 9 -3 11 0 6 8 -4 7 4 4 19 -5 32 -21 34 -30 4 -15 -23 11 -23 11 1
-9 15 -14 37 -21 63 -21 40 0 98 26 98 44 0 5 -10 1 -23 -10 l-22 -19 19 22
c10 13 22 20 27 17 11 -6 26 23 34 69 7 35 9 37 24 22 23 -20 37 -19 20 2 -13
15 -12 15 8 2 12 -7 18 -16 12 -19 -5 -4 -2 -13 8 -22 101 -88 212 -17 213
135 0 31 2 57 5 57 3 0 16 -9 28 -21 34 -32 93 -59 130 -59 41 0 51 8 34 29
-11 14 -10 14 6 1 17 -13 21 -12 38 10 25 33 33 80 26 150 l-7 59 80 45 c168
98 340 244 418 359 l30 42 -123 0 -122 0 -98 49 c-78 39 -114 64 -175 125 -62
61 -137 158 -183 237 -4 7 18 4 56 -8 77 -24 239 -68 251 -68 5 0 -17 18 -50
41 -83 58 -138 113 -197 198 -29 40 -59 83 -67 94 -13 18 -13 19 5 14 43 -13
177 -26 320 -32 l150 -6 -61 34 c-87 48 -151 96 -216 165 -50 53 -138 174
-138 192 0 3 33 -2 73 -12 121 -31 302 -44 425 -30 137 16 207 34 310 83 170
79 293 193 363 334 46 94 73 210 64 274 l-7 44 -151 -7 c-786 -33 -1244 -175
-1979 -613 l-157 -93 -88 0 -88 0 -155 96 c-662 408 -1117 556 -1855 604 -186
12 -249 13 -258 3z m2127 -978 c26 -382 56 -1177 43 -1165 -9 8 -54 333 -69
495 -19 209 -14 925 7 903 2 -2 10 -106 19 -233z m515 -195 c1 -239 -13 -482
-40 -700 -12 -91 -23 -184 -26 -208 -3 -23 -10 -45 -16 -49 -6 -4 -8 0 -4 10
3 9 7 110 8 224 3 300 33 878 57 1083 7 65 7 64 13 -50 4 -63 7 -203 8 -310z
m-1278 -825 c41 -22 69 -71 68 -120 l-2 -40 -6 45 c-9 59 -25 86 -61 105 -70
36 -141 7 -199 -82 -19 -29 -36 -51 -39 -49 -6 7 44 80 74 107 57 52 109 63
165 34z m2129 -5 c40 -20 120 -120 120 -149 0 -9 -9 2 -21 24 -25 48 -74 102
-111 121 -30 15 -92 19 -84 5 4 -5 -3 -7 -13 -4 -25 6 -60 -29 -68 -68 -3 -16
-9 -32 -14 -34 -11 -7 11 67 25 84 16 20 66 40 99 41 15 0 45 -9 67 -20z
m-1947 -85 c-29 -13 -65 -36 -80 -52 -25 -26 -26 -26 -12 -3 14 24 110 81 133
79 6 0 -13 -11 -41 -24z m1667 0 c14 -7 36 -26 50 -42 l25 -28 -30 26 c-44 39
-73 51 -119 51 -33 -1 -47 -7 -68 -32 -16 -16 -28 -27 -28 -22 0 14 53 60 75
65 25 5 62 -2 95 -18z m-1548 -12 c31 -33 48 -74 47 -111 -1 -18 -4 -13 -10
18 -10 51 -35 89 -70 107 -15 8 -18 13 -8 13 8 0 27 -12 41 -27z m1375 -90
c-3 -10 -5 -4 -5 12 0 17 2 24 5 18 2 -7 2 -21 0 -30z m-1210 13 c-26 -7 -62
-26 -80 -42 l-32 -29 25 29 c29 33 74 55 110 55 15 0 7 -5 -23 -13z m1076 7
c-7 -2 -21 -2 -30 0 -10 3 -4 5 12 5 17 0 24 -2 18 -5z m-970 -33 c14 -16 31
-46 37 -66 15 -44 9 -171 -9 -199 -11 -17 -11 -16 -4 10 4 17 8 66 8 110 0 89
-20 140 -66 162 -16 9 -19 13 -7 13 9 0 27 -13 41 -30z m897 17 c-14 -6 -35
-32 -48 -57 -20 -38 -23 -56 -19 -120 3 -41 8 -86 12 -100 6 -23 5 -23 -6 -5
-18 28 -24 155 -9 199 15 45 56 96 78 96 11 0 9 -4 -8 -13z m143 -12 c20 -14
37 -31 37 -37 0 -7 -6 -5 -12 4 -7 9 -29 26 -48 37 -19 12 -30 21 -25 21 6 0
27 -11 48 -25z m-1856 -17 c-3 -7 -5 -2 -5 12 0 14 2 19 5 13 2 -7 2 -19 0
-25z m2499 -93 c-4 -17 -13 -40 -21 -51 -13 -17 -13 -14 0 18 8 21 16 59 17
85 1 40 2 42 5 14 3 -19 2 -49 -1 -66z m-2499 -7 c-3 -8 -6 -5 -6 6 -1 11 2
17 5 13 3 -3 4 -12 1 -19z m2230 -60 c-3 -8 -6 -5 -6 6 -1 11 2 17 5 13 3 -3
4 -12 1 -19z m128 -16 c-3 -3 -11 0 -18 7 -9 10 -8 11 6 5 10 -3 15 -9 12 -12z
m-2284 -10 c-7 -2 -18 1 -23 6 -8 8 -4 9 13 5 13 -4 18 -8 10 -11z m52 1 c-7
-2 -19 -2 -25 0 -7 3 -2 5 12 5 14 0 19 -2 13 -5z m2295 0 c-10 -2 -26 -2 -35
0 -10 3 -2 5 17 5 19 0 27 -2 18 -5z m-208 -23 c0 -5 -5 -10 -11 -10 -5 0 -7
5 -4 10 3 6 8 10 11 10 2 0 4 -4 4 -10z m-1663 -82 c-3 -8 -6 -5 -6 6 -1 11 2
17 5 13 3 -3 4 -12 1 -19z m1653 -2 c0 -2 -8 -10 -17 -17 -16 -13 -17 -12 -4
4 13 16 21 21 21 13z m-263 -28 c-3 -8 -6 -5 -6 6 -1 11 2 17 5 13 3 -3 4 -12
1 -19z"/>
</g>
</svg>
